<mxfile host="65bd71144e">
    <diagram id="Fu0IYNxyIG8_fdDhAGre" name="第 1 页">
        <mxGraphModel dx="1941" dy="2172" grid="1" gridSize="10" guides="1" tooltips="1" connect="1" arrows="1" fold="1" page="1" pageScale="1" pageWidth="827" pageHeight="1169" math="0" shadow="0">
            <root>
                <mxCell id="0"/>
                <mxCell id="1" parent="0"/>
                <mxCell id="2" value="" style="whiteSpace=wrap;html=1;aspect=fixed;" vertex="1" parent="1">
                    <mxGeometry x="30" y="220" width="760" height="760" as="geometry"/>
                </mxCell>
                <mxCell id="22" value="" style="rounded=0;whiteSpace=wrap;html=1;dashed=1;" vertex="1" parent="1">
                    <mxGeometry x="60" y="250" width="720" height="300" as="geometry"/>
                </mxCell>
                <mxCell id="3" value="" style="rounded=0;whiteSpace=wrap;html=1;dashed=1;" vertex="1" parent="1">
                    <mxGeometry x="60" y="585" width="210" height="350" as="geometry"/>
                </mxCell>
                <mxCell id="4" value="资源池1" style="text;html=1;strokeColor=none;fillColor=none;align=center;verticalAlign=middle;whiteSpace=wrap;rounded=0;dashed=1;" vertex="1" parent="1">
                    <mxGeometry x="30" y="220" width="60" height="30" as="geometry"/>
                </mxCell>
                <mxCell id="5" value="vpc 1" style="text;html=1;strokeColor=none;fillColor=none;align=center;verticalAlign=middle;whiteSpace=wrap;rounded=0;dashed=1;" vertex="1" parent="1">
                    <mxGeometry x="60" y="585" width="60" height="30" as="geometry"/>
                </mxCell>
                <mxCell id="6" value="ECS" style="sketch=0;outlineConnect=0;fontColor=#232F3E;gradientColor=none;strokeColor=#ffffff;fillColor=#232F3E;dashed=0;verticalLabelPosition=middle;verticalAlign=bottom;align=center;html=1;whiteSpace=wrap;fontSize=10;fontStyle=1;spacing=3;shape=mxgraph.aws4.productIcon;prIcon=mxgraph.aws4.ecs;" vertex="1" parent="1">
                    <mxGeometry x="70" y="630" width="80" height="100" as="geometry"/>
                </mxCell>
                <mxCell id="8" value="RDS" style="sketch=0;outlineConnect=0;fontColor=#232F3E;gradientColor=none;strokeColor=#ffffff;fillColor=#232F3E;dashed=0;verticalLabelPosition=middle;verticalAlign=bottom;align=center;html=1;whiteSpace=wrap;fontSize=10;fontStyle=1;spacing=3;shape=mxgraph.aws4.productIcon;prIcon=mxgraph.aws4.rds;" vertex="1" parent="1">
                    <mxGeometry x="70" y="730" width="80" height="100" as="geometry"/>
                </mxCell>
                <mxCell id="10" value="&amp;nbsp;MQ" style="sketch=0;outlineConnect=0;fontColor=#232F3E;gradientColor=none;strokeColor=#ffffff;fillColor=#232F3E;dashed=0;verticalLabelPosition=middle;verticalAlign=bottom;align=center;html=1;whiteSpace=wrap;fontSize=10;fontStyle=1;spacing=3;shape=mxgraph.aws4.productIcon;prIcon=mxgraph.aws4.mq;" vertex="1" parent="1">
                    <mxGeometry x="70" y="840" width="80" height="100" as="geometry"/>
                </mxCell>
                <mxCell id="14" style="edgeStyle=none;html=1;entryX=1;entryY=0.3;entryDx=0;entryDy=0;entryPerimeter=0;" edge="1" parent="1" source="12" target="6">
                    <mxGeometry relative="1" as="geometry"/>
                </mxCell>
                <mxCell id="15" style="edgeStyle=none;html=1;rounded=1;" edge="1" parent="1" source="12" target="8">
                    <mxGeometry relative="1" as="geometry"/>
                </mxCell>
                <mxCell id="16" style="edgeStyle=none;rounded=1;html=1;" edge="1" parent="1" source="12" target="10">
                    <mxGeometry relative="1" as="geometry"/>
                </mxCell>
                <mxCell id="24" style="edgeStyle=none;rounded=1;html=1;entryX=0.5;entryY=1;entryDx=0;entryDy=0;entryPerimeter=0;" edge="1" parent="1" source="12" target="23">
                    <mxGeometry relative="1" as="geometry"/>
                </mxCell>
                <mxCell id="12" value="Agent" style="sketch=0;outlineConnect=0;fontColor=#232F3E;gradientColor=none;strokeColor=#232F3E;fillColor=#ffffff;dashed=0;verticalLabelPosition=bottom;verticalAlign=top;align=center;html=1;fontSize=12;fontStyle=0;aspect=fixed;shape=mxgraph.aws4.resourceIcon;resIcon=mxgraph.aws4.agent;" vertex="1" parent="1">
                    <mxGeometry x="200" y="630" width="60" height="60" as="geometry"/>
                </mxCell>
                <mxCell id="19" value="" style="sketch=0;aspect=fixed;html=1;points=[];align=center;image;fontSize=12;image=img/lib/mscae/Kubernetes.svg;dashed=1;" vertex="1" parent="1">
                    <mxGeometry x="207" y="866" width="50" height="48" as="geometry"/>
                </mxCell>
                <mxCell id="21" style="edgeStyle=none;rounded=1;html=1;" edge="1" parent="1" source="20" target="19">
                    <mxGeometry relative="1" as="geometry"/>
                </mxCell>
                <mxCell id="25" style="edgeStyle=none;rounded=1;html=1;entryX=0.855;entryY=0.855;entryDx=0;entryDy=0;entryPerimeter=0;" edge="1" parent="1" source="20" target="23">
                    <mxGeometry relative="1" as="geometry"/>
                </mxCell>
                <mxCell id="20" value="Agent" style="sketch=0;outlineConnect=0;fontColor=#232F3E;gradientColor=none;strokeColor=#232F3E;fillColor=#ffffff;dashed=0;verticalLabelPosition=bottom;verticalAlign=top;align=center;html=1;fontSize=12;fontStyle=0;aspect=fixed;shape=mxgraph.aws4.resourceIcon;resIcon=mxgraph.aws4.agent;" vertex="1" parent="1">
                    <mxGeometry x="200" y="750" width="60" height="60" as="geometry"/>
                </mxCell>
                <mxCell id="27" style="edgeStyle=none;rounded=1;html=1;" edge="1" parent="1" source="23" target="26">
                    <mxGeometry relative="1" as="geometry"/>
                </mxCell>
                <mxCell id="23" value="" style="outlineConnect=0;dashed=0;verticalLabelPosition=bottom;verticalAlign=top;align=center;html=1;shape=mxgraph.aws3.vpc_nat_gateway;fillColor=#F58534;gradientColor=none;" vertex="1" parent="1">
                    <mxGeometry x="120" y="450" width="69" height="72" as="geometry"/>
                </mxCell>
                <mxCell id="29" style="edgeStyle=none;rounded=1;html=1;" edge="1" parent="1" source="26" target="28">
                    <mxGeometry relative="1" as="geometry"/>
                </mxCell>
                <mxCell id="26" value="" style="sketch=0;outlineConnect=0;fontColor=#232F3E;gradientColor=none;fillColor=#B0084D;strokeColor=none;dashed=0;verticalLabelPosition=bottom;verticalAlign=top;align=center;html=1;fontSize=12;fontStyle=0;aspect=fixed;pointerEvents=1;shape=mxgraph.aws4.mq_broker;" vertex="1" parent="1">
                    <mxGeometry x="257" y="450" width="78" height="78" as="geometry"/>
                </mxCell>
                <mxCell id="32" style="edgeStyle=none;rounded=1;html=1;entryX=0;entryY=0.5;entryDx=0;entryDy=0;entryPerimeter=0;" edge="1" parent="1" source="28" target="30">
                    <mxGeometry relative="1" as="geometry"/>
                </mxCell>
                <mxCell id="33" style="edgeStyle=none;rounded=1;html=1;" edge="1" parent="1" source="28" target="31">
                    <mxGeometry relative="1" as="geometry"/>
                </mxCell>
                <mxCell id="28" value="etl" style="shape=process;whiteSpace=wrap;html=1;backgroundOutline=1;dashed=1;" vertex="1" parent="1">
                    <mxGeometry x="380" y="462" width="120" height="60" as="geometry"/>
                </mxCell>
                <mxCell id="30" value="Log" style="html=1;strokeColor=none;fillColor=#0079D6;labelPosition=center;verticalLabelPosition=middle;verticalAlign=top;align=center;fontSize=12;outlineConnect=0;spacingTop=-6;fontColor=#FFFFFF;sketch=0;shape=mxgraph.sitemap.log;dashed=1;" vertex="1" parent="1">
                    <mxGeometry x="590" y="290" width="120" height="70" as="geometry"/>
                </mxCell>
                <mxCell id="31" value="time series database" style="aspect=fixed;html=1;points=[];align=center;image;fontSize=12;image=img/lib/azure2/iot/Time_Series_Data_Sets.svg;dashed=1;" vertex="1" parent="1">
                    <mxGeometry x="630" y="458" width="51.2" height="68" as="geometry"/>
                </mxCell>
                <mxCell id="34" value="" style="rounded=0;whiteSpace=wrap;html=1;dashed=1;" vertex="1" parent="1">
                    <mxGeometry x="430" y="582.5" width="210" height="350" as="geometry"/>
                </mxCell>
                <mxCell id="35" value="vpc 2" style="text;html=1;strokeColor=none;fillColor=none;align=center;verticalAlign=middle;whiteSpace=wrap;rounded=0;dashed=1;" vertex="1" parent="1">
                    <mxGeometry x="430" y="582.5" width="60" height="30" as="geometry"/>
                </mxCell>
                <mxCell id="36" value="ECS" style="sketch=0;outlineConnect=0;fontColor=#232F3E;gradientColor=none;strokeColor=#ffffff;fillColor=#232F3E;dashed=0;verticalLabelPosition=middle;verticalAlign=bottom;align=center;html=1;whiteSpace=wrap;fontSize=10;fontStyle=1;spacing=3;shape=mxgraph.aws4.productIcon;prIcon=mxgraph.aws4.ecs;" vertex="1" parent="1">
                    <mxGeometry x="440" y="627.5" width="80" height="100" as="geometry"/>
                </mxCell>
                <mxCell id="37" value="RDS" style="sketch=0;outlineConnect=0;fontColor=#232F3E;gradientColor=none;strokeColor=#ffffff;fillColor=#232F3E;dashed=0;verticalLabelPosition=middle;verticalAlign=bottom;align=center;html=1;whiteSpace=wrap;fontSize=10;fontStyle=1;spacing=3;shape=mxgraph.aws4.productIcon;prIcon=mxgraph.aws4.rds;" vertex="1" parent="1">
                    <mxGeometry x="440" y="727.5" width="80" height="100" as="geometry"/>
                </mxCell>
                <mxCell id="38" value="&amp;nbsp;MQ" style="sketch=0;outlineConnect=0;fontColor=#232F3E;gradientColor=none;strokeColor=#ffffff;fillColor=#232F3E;dashed=0;verticalLabelPosition=middle;verticalAlign=bottom;align=center;html=1;whiteSpace=wrap;fontSize=10;fontStyle=1;spacing=3;shape=mxgraph.aws4.productIcon;prIcon=mxgraph.aws4.mq;" vertex="1" parent="1">
                    <mxGeometry x="440" y="837.5" width="80" height="100" as="geometry"/>
                </mxCell>
                <mxCell id="39" style="edgeStyle=none;html=1;entryX=1;entryY=0.3;entryDx=0;entryDy=0;entryPerimeter=0;" edge="1" source="42" target="36" parent="1">
                    <mxGeometry relative="1" as="geometry"/>
                </mxCell>
                <mxCell id="40" style="edgeStyle=none;html=1;rounded=1;" edge="1" source="42" target="37" parent="1">
                    <mxGeometry relative="1" as="geometry"/>
                </mxCell>
                <mxCell id="41" style="edgeStyle=none;rounded=1;html=1;" edge="1" source="42" target="38" parent="1">
                    <mxGeometry relative="1" as="geometry"/>
                </mxCell>
                <mxCell id="46" style="edgeStyle=none;rounded=1;html=1;entryX=0.87;entryY=0.694;entryDx=0;entryDy=0;entryPerimeter=0;" edge="1" parent="1" source="42" target="23">
                    <mxGeometry relative="1" as="geometry"/>
                </mxCell>
                <mxCell id="42" value="Agent" style="sketch=0;outlineConnect=0;fontColor=#232F3E;gradientColor=none;strokeColor=#232F3E;fillColor=#ffffff;dashed=0;verticalLabelPosition=bottom;verticalAlign=top;align=center;html=1;fontSize=12;fontStyle=0;aspect=fixed;shape=mxgraph.aws4.resourceIcon;resIcon=mxgraph.aws4.agent;" vertex="1" parent="1">
                    <mxGeometry x="570" y="627.5" width="60" height="60" as="geometry"/>
                </mxCell>
                <mxCell id="43" value="" style="sketch=0;aspect=fixed;html=1;points=[];align=center;image;fontSize=12;image=img/lib/mscae/Kubernetes.svg;dashed=1;" vertex="1" parent="1">
                    <mxGeometry x="577" y="863.5" width="50" height="48" as="geometry"/>
                </mxCell>
                <mxCell id="44" style="edgeStyle=none;rounded=1;html=1;" edge="1" source="45" target="43" parent="1">
                    <mxGeometry relative="1" as="geometry"/>
                </mxCell>
                <mxCell id="47" style="edgeStyle=none;rounded=1;html=1;entryX=0.855;entryY=0.855;entryDx=0;entryDy=0;entryPerimeter=0;" edge="1" parent="1" source="45" target="23">
                    <mxGeometry relative="1" as="geometry"/>
                </mxCell>
                <mxCell id="45" value="Agent" style="sketch=0;outlineConnect=0;fontColor=#232F3E;gradientColor=none;strokeColor=#232F3E;fillColor=#ffffff;dashed=0;verticalLabelPosition=bottom;verticalAlign=top;align=center;html=1;fontSize=12;fontStyle=0;aspect=fixed;shape=mxgraph.aws4.resourceIcon;resIcon=mxgraph.aws4.agent;" vertex="1" parent="1">
                    <mxGeometry x="570" y="747.5" width="60" height="60" as="geometry"/>
                </mxCell>
                <mxCell id="48" value="" style="whiteSpace=wrap;html=1;aspect=fixed;" vertex="1" parent="1">
                    <mxGeometry x="827" y="220" width="760" height="760" as="geometry"/>
                </mxCell>
                <mxCell id="49" value="" style="rounded=0;whiteSpace=wrap;html=1;dashed=1;" vertex="1" parent="1">
                    <mxGeometry x="857" y="250" width="720" height="300" as="geometry"/>
                </mxCell>
                <mxCell id="50" value="" style="rounded=0;whiteSpace=wrap;html=1;dashed=1;" vertex="1" parent="1">
                    <mxGeometry x="857" y="585" width="210" height="350" as="geometry"/>
                </mxCell>
                <mxCell id="51" value="资源池2" style="text;html=1;strokeColor=none;fillColor=none;align=center;verticalAlign=middle;whiteSpace=wrap;rounded=0;dashed=1;" vertex="1" parent="1">
                    <mxGeometry x="827" y="220" width="60" height="30" as="geometry"/>
                </mxCell>
                <mxCell id="52" value="vpc 1" style="text;html=1;strokeColor=none;fillColor=none;align=center;verticalAlign=middle;whiteSpace=wrap;rounded=0;dashed=1;" vertex="1" parent="1">
                    <mxGeometry x="857" y="585" width="60" height="30" as="geometry"/>
                </mxCell>
                <mxCell id="53" value="ECS" style="sketch=0;outlineConnect=0;fontColor=#232F3E;gradientColor=none;strokeColor=#ffffff;fillColor=#232F3E;dashed=0;verticalLabelPosition=middle;verticalAlign=bottom;align=center;html=1;whiteSpace=wrap;fontSize=10;fontStyle=1;spacing=3;shape=mxgraph.aws4.productIcon;prIcon=mxgraph.aws4.ecs;" vertex="1" parent="1">
                    <mxGeometry x="867" y="630" width="80" height="100" as="geometry"/>
                </mxCell>
                <mxCell id="54" value="RDS" style="sketch=0;outlineConnect=0;fontColor=#232F3E;gradientColor=none;strokeColor=#ffffff;fillColor=#232F3E;dashed=0;verticalLabelPosition=middle;verticalAlign=bottom;align=center;html=1;whiteSpace=wrap;fontSize=10;fontStyle=1;spacing=3;shape=mxgraph.aws4.productIcon;prIcon=mxgraph.aws4.rds;" vertex="1" parent="1">
                    <mxGeometry x="867" y="730" width="80" height="100" as="geometry"/>
                </mxCell>
                <mxCell id="55" value="&amp;nbsp;MQ" style="sketch=0;outlineConnect=0;fontColor=#232F3E;gradientColor=none;strokeColor=#ffffff;fillColor=#232F3E;dashed=0;verticalLabelPosition=middle;verticalAlign=bottom;align=center;html=1;whiteSpace=wrap;fontSize=10;fontStyle=1;spacing=3;shape=mxgraph.aws4.productIcon;prIcon=mxgraph.aws4.mq;" vertex="1" parent="1">
                    <mxGeometry x="867" y="840" width="80" height="100" as="geometry"/>
                </mxCell>
                <mxCell id="56" style="edgeStyle=none;html=1;entryX=1;entryY=0.3;entryDx=0;entryDy=0;entryPerimeter=0;" edge="1" source="60" target="53" parent="1">
                    <mxGeometry relative="1" as="geometry"/>
                </mxCell>
                <mxCell id="57" style="edgeStyle=none;html=1;rounded=1;" edge="1" source="60" target="54" parent="1">
                    <mxGeometry relative="1" as="geometry"/>
                </mxCell>
                <mxCell id="58" style="edgeStyle=none;rounded=1;html=1;" edge="1" source="60" target="55" parent="1">
                    <mxGeometry relative="1" as="geometry"/>
                </mxCell>
                <mxCell id="59" style="edgeStyle=none;rounded=1;html=1;entryX=0.5;entryY=1;entryDx=0;entryDy=0;entryPerimeter=0;" edge="1" source="60" target="66" parent="1">
                    <mxGeometry relative="1" as="geometry"/>
                </mxCell>
                <mxCell id="60" value="Agent" style="sketch=0;outlineConnect=0;fontColor=#232F3E;gradientColor=none;strokeColor=#232F3E;fillColor=#ffffff;dashed=0;verticalLabelPosition=bottom;verticalAlign=top;align=center;html=1;fontSize=12;fontStyle=0;aspect=fixed;shape=mxgraph.aws4.resourceIcon;resIcon=mxgraph.aws4.agent;" vertex="1" parent="1">
                    <mxGeometry x="997" y="630" width="60" height="60" as="geometry"/>
                </mxCell>
                <mxCell id="61" value="" style="sketch=0;aspect=fixed;html=1;points=[];align=center;image;fontSize=12;image=img/lib/mscae/Kubernetes.svg;dashed=1;" vertex="1" parent="1">
                    <mxGeometry x="1004" y="866" width="50" height="48" as="geometry"/>
                </mxCell>
                <mxCell id="62" style="edgeStyle=none;rounded=1;html=1;" edge="1" source="64" target="61" parent="1">
                    <mxGeometry relative="1" as="geometry"/>
                </mxCell>
                <mxCell id="63" style="edgeStyle=none;rounded=1;html=1;entryX=0.855;entryY=0.855;entryDx=0;entryDy=0;entryPerimeter=0;" edge="1" source="64" target="66" parent="1">
                    <mxGeometry relative="1" as="geometry"/>
                </mxCell>
                <mxCell id="151" style="edgeStyle=none;rounded=1;html=1;entryX=0.667;entryY=0.475;entryDx=0;entryDy=0;entryPerimeter=0;" edge="1" parent="1" source="64" target="42">
                    <mxGeometry relative="1" as="geometry"/>
                </mxCell>
                <mxCell id="64" value="Agent" style="sketch=0;outlineConnect=0;fontColor=#232F3E;gradientColor=none;strokeColor=#232F3E;fillColor=#ffffff;dashed=0;verticalLabelPosition=bottom;verticalAlign=top;align=center;html=1;fontSize=12;fontStyle=0;aspect=fixed;shape=mxgraph.aws4.resourceIcon;resIcon=mxgraph.aws4.agent;" vertex="1" parent="1">
                    <mxGeometry x="997" y="750" width="60" height="60" as="geometry"/>
                </mxCell>
                <mxCell id="65" style="edgeStyle=none;rounded=1;html=1;" edge="1" source="66" target="68" parent="1">
                    <mxGeometry relative="1" as="geometry"/>
                </mxCell>
                <mxCell id="66" value="" style="outlineConnect=0;dashed=0;verticalLabelPosition=bottom;verticalAlign=top;align=center;html=1;shape=mxgraph.aws3.vpc_nat_gateway;fillColor=#F58534;gradientColor=none;" vertex="1" parent="1">
                    <mxGeometry x="917" y="450" width="69" height="72" as="geometry"/>
                </mxCell>
                <mxCell id="67" style="edgeStyle=none;rounded=1;html=1;" edge="1" source="68" target="71" parent="1">
                    <mxGeometry relative="1" as="geometry"/>
                </mxCell>
                <mxCell id="68" value="" style="sketch=0;outlineConnect=0;fontColor=#232F3E;gradientColor=none;fillColor=#B0084D;strokeColor=none;dashed=0;verticalLabelPosition=bottom;verticalAlign=top;align=center;html=1;fontSize=12;fontStyle=0;aspect=fixed;pointerEvents=1;shape=mxgraph.aws4.mq_broker;" vertex="1" parent="1">
                    <mxGeometry x="1054" y="450" width="78" height="78" as="geometry"/>
                </mxCell>
                <mxCell id="69" style="edgeStyle=none;rounded=1;html=1;entryX=0;entryY=0.5;entryDx=0;entryDy=0;entryPerimeter=0;" edge="1" source="71" target="72" parent="1">
                    <mxGeometry relative="1" as="geometry"/>
                </mxCell>
                <mxCell id="70" style="edgeStyle=none;rounded=1;html=1;" edge="1" source="71" target="73" parent="1">
                    <mxGeometry relative="1" as="geometry"/>
                </mxCell>
                <mxCell id="71" value="etl" style="shape=process;whiteSpace=wrap;html=1;backgroundOutline=1;dashed=1;" vertex="1" parent="1">
                    <mxGeometry x="1177" y="462" width="120" height="60" as="geometry"/>
                </mxCell>
                <mxCell id="72" value="Log" style="html=1;strokeColor=none;fillColor=#0079D6;labelPosition=center;verticalLabelPosition=middle;verticalAlign=top;align=center;fontSize=12;outlineConnect=0;spacingTop=-6;fontColor=#FFFFFF;sketch=0;shape=mxgraph.sitemap.log;dashed=1;" vertex="1" parent="1">
                    <mxGeometry x="1387" y="290" width="120" height="70" as="geometry"/>
                </mxCell>
                <mxCell id="73" value="time series database" style="aspect=fixed;html=1;points=[];align=center;image;fontSize=12;image=img/lib/azure2/iot/Time_Series_Data_Sets.svg;dashed=1;" vertex="1" parent="1">
                    <mxGeometry x="1427" y="458" width="51.2" height="68" as="geometry"/>
                </mxCell>
                <mxCell id="74" value="" style="rounded=0;whiteSpace=wrap;html=1;dashed=1;" vertex="1" parent="1">
                    <mxGeometry x="1227" y="582.5" width="210" height="350" as="geometry"/>
                </mxCell>
                <mxCell id="75" value="vpc 2" style="text;html=1;strokeColor=none;fillColor=none;align=center;verticalAlign=middle;whiteSpace=wrap;rounded=0;dashed=1;" vertex="1" parent="1">
                    <mxGeometry x="1227" y="582.5" width="60" height="30" as="geometry"/>
                </mxCell>
                <mxCell id="76" value="ECS" style="sketch=0;outlineConnect=0;fontColor=#232F3E;gradientColor=none;strokeColor=#ffffff;fillColor=#232F3E;dashed=0;verticalLabelPosition=middle;verticalAlign=bottom;align=center;html=1;whiteSpace=wrap;fontSize=10;fontStyle=1;spacing=3;shape=mxgraph.aws4.productIcon;prIcon=mxgraph.aws4.ecs;" vertex="1" parent="1">
                    <mxGeometry x="1237" y="627.5" width="80" height="100" as="geometry"/>
                </mxCell>
                <mxCell id="77" value="RDS" style="sketch=0;outlineConnect=0;fontColor=#232F3E;gradientColor=none;strokeColor=#ffffff;fillColor=#232F3E;dashed=0;verticalLabelPosition=middle;verticalAlign=bottom;align=center;html=1;whiteSpace=wrap;fontSize=10;fontStyle=1;spacing=3;shape=mxgraph.aws4.productIcon;prIcon=mxgraph.aws4.rds;" vertex="1" parent="1">
                    <mxGeometry x="1237" y="727.5" width="80" height="100" as="geometry"/>
                </mxCell>
                <mxCell id="78" value="&amp;nbsp;MQ" style="sketch=0;outlineConnect=0;fontColor=#232F3E;gradientColor=none;strokeColor=#ffffff;fillColor=#232F3E;dashed=0;verticalLabelPosition=middle;verticalAlign=bottom;align=center;html=1;whiteSpace=wrap;fontSize=10;fontStyle=1;spacing=3;shape=mxgraph.aws4.productIcon;prIcon=mxgraph.aws4.mq;" vertex="1" parent="1">
                    <mxGeometry x="1237" y="837.5" width="80" height="100" as="geometry"/>
                </mxCell>
                <mxCell id="79" style="edgeStyle=none;html=1;entryX=1;entryY=0.3;entryDx=0;entryDy=0;entryPerimeter=0;" edge="1" source="83" target="76" parent="1">
                    <mxGeometry relative="1" as="geometry"/>
                </mxCell>
                <mxCell id="80" style="edgeStyle=none;html=1;rounded=1;" edge="1" source="83" target="77" parent="1">
                    <mxGeometry relative="1" as="geometry"/>
                </mxCell>
                <mxCell id="81" style="edgeStyle=none;rounded=1;html=1;" edge="1" source="83" target="78" parent="1">
                    <mxGeometry relative="1" as="geometry"/>
                </mxCell>
                <mxCell id="82" style="edgeStyle=none;rounded=1;html=1;entryX=0.87;entryY=0.694;entryDx=0;entryDy=0;entryPerimeter=0;" edge="1" source="83" target="66" parent="1">
                    <mxGeometry relative="1" as="geometry"/>
                </mxCell>
                <mxCell id="83" value="Agent" style="sketch=0;outlineConnect=0;fontColor=#232F3E;gradientColor=none;strokeColor=#232F3E;fillColor=#ffffff;dashed=0;verticalLabelPosition=bottom;verticalAlign=top;align=center;html=1;fontSize=12;fontStyle=0;aspect=fixed;shape=mxgraph.aws4.resourceIcon;resIcon=mxgraph.aws4.agent;" vertex="1" parent="1">
                    <mxGeometry x="1367" y="627.5" width="60" height="60" as="geometry"/>
                </mxCell>
                <mxCell id="84" value="" style="sketch=0;aspect=fixed;html=1;points=[];align=center;image;fontSize=12;image=img/lib/mscae/Kubernetes.svg;dashed=1;" vertex="1" parent="1">
                    <mxGeometry x="1374" y="863.5" width="50" height="48" as="geometry"/>
                </mxCell>
                <mxCell id="85" style="edgeStyle=none;rounded=1;html=1;" edge="1" source="87" target="84" parent="1">
                    <mxGeometry relative="1" as="geometry"/>
                </mxCell>
                <mxCell id="86" style="edgeStyle=none;rounded=1;html=1;entryX=0.855;entryY=0.855;entryDx=0;entryDy=0;entryPerimeter=0;" edge="1" source="87" target="66" parent="1">
                    <mxGeometry relative="1" as="geometry"/>
                </mxCell>
                <mxCell id="87" value="Agent" style="sketch=0;outlineConnect=0;fontColor=#232F3E;gradientColor=none;strokeColor=#232F3E;fillColor=#ffffff;dashed=0;verticalLabelPosition=bottom;verticalAlign=top;align=center;html=1;fontSize=12;fontStyle=0;aspect=fixed;shape=mxgraph.aws4.resourceIcon;resIcon=mxgraph.aws4.agent;" vertex="1" parent="1">
                    <mxGeometry x="1367" y="747.5" width="60" height="60" as="geometry"/>
                </mxCell>
                <mxCell id="88" value="" style="whiteSpace=wrap;html=1;aspect=fixed;" vertex="1" parent="1">
                    <mxGeometry x="275.6" y="-570" width="760" height="760" as="geometry"/>
                </mxCell>
                <mxCell id="89" value="" style="rounded=0;whiteSpace=wrap;html=1;dashed=1;" vertex="1" parent="1">
                    <mxGeometry x="284" y="-120" width="720" height="300" as="geometry"/>
                </mxCell>
                <mxCell id="91" value="资源池1" style="text;html=1;strokeColor=none;fillColor=none;align=center;verticalAlign=middle;whiteSpace=wrap;rounded=0;dashed=1;" vertex="1" parent="1">
                    <mxGeometry x="275.6" y="-570" width="60" height="30" as="geometry"/>
                </mxCell>
                <mxCell id="105" style="edgeStyle=none;rounded=1;html=1;" edge="1" source="106" target="108" parent="1">
                    <mxGeometry relative="1" as="geometry"/>
                </mxCell>
                <mxCell id="106" value="" style="outlineConnect=0;dashed=0;verticalLabelPosition=bottom;verticalAlign=top;align=center;html=1;shape=mxgraph.aws3.vpc_nat_gateway;fillColor=#F58534;gradientColor=none;" vertex="1" parent="1">
                    <mxGeometry x="344" y="80" width="69" height="72" as="geometry"/>
                </mxCell>
                <mxCell id="107" style="edgeStyle=none;rounded=1;html=1;" edge="1" source="108" target="111" parent="1">
                    <mxGeometry relative="1" as="geometry"/>
                </mxCell>
                <mxCell id="108" value="" style="sketch=0;outlineConnect=0;fontColor=#232F3E;gradientColor=none;fillColor=#B0084D;strokeColor=none;dashed=0;verticalLabelPosition=bottom;verticalAlign=top;align=center;html=1;fontSize=12;fontStyle=0;aspect=fixed;pointerEvents=1;shape=mxgraph.aws4.mq_broker;" vertex="1" parent="1">
                    <mxGeometry x="481" y="80" width="78" height="78" as="geometry"/>
                </mxCell>
                <mxCell id="109" style="edgeStyle=none;rounded=1;html=1;entryX=0;entryY=0.5;entryDx=0;entryDy=0;entryPerimeter=0;" edge="1" source="111" target="112" parent="1">
                    <mxGeometry relative="1" as="geometry"/>
                </mxCell>
                <mxCell id="110" style="edgeStyle=none;rounded=1;html=1;" edge="1" source="111" target="113" parent="1">
                    <mxGeometry relative="1" as="geometry"/>
                </mxCell>
                <mxCell id="111" value="etl" style="shape=process;whiteSpace=wrap;html=1;backgroundOutline=1;dashed=1;" vertex="1" parent="1">
                    <mxGeometry x="604" y="92" width="120" height="60" as="geometry"/>
                </mxCell>
                <mxCell id="112" value="Log" style="html=1;strokeColor=none;fillColor=#0079D6;labelPosition=center;verticalLabelPosition=middle;verticalAlign=top;align=center;fontSize=12;outlineConnect=0;spacingTop=-6;fontColor=#FFFFFF;sketch=0;shape=mxgraph.sitemap.log;dashed=1;" vertex="1" parent="1">
                    <mxGeometry x="814" y="-80" width="120" height="70" as="geometry"/>
                </mxCell>
                <mxCell id="113" value="time series database" style="aspect=fixed;html=1;points=[];align=center;image;fontSize=12;image=img/lib/azure2/iot/Time_Series_Data_Sets.svg;dashed=1;" vertex="1" parent="1">
                    <mxGeometry x="854" y="88" width="51.2" height="68" as="geometry"/>
                </mxCell>
                <mxCell id="142" style="edgeStyle=none;rounded=1;html=1;" edge="1" parent="1" source="130" target="30">
                    <mxGeometry relative="1" as="geometry"/>
                </mxCell>
                <mxCell id="146" style="edgeStyle=none;rounded=1;html=1;entryX=-0.02;entryY=0.463;entryDx=0;entryDy=0;entryPerimeter=0;" edge="1" parent="1" source="130" target="31">
                    <mxGeometry relative="1" as="geometry"/>
                </mxCell>
                <mxCell id="130" value="" style="pointerEvents=1;shadow=0;dashed=0;html=1;strokeColor=none;fillColor=#4495D1;labelPosition=center;verticalLabelPosition=bottom;verticalAlign=top;align=center;outlineConnect=0;shape=mxgraph.veeam.2d.proxy;" vertex="1" parent="1">
                    <mxGeometry x="344" y="302.6" width="44.8" height="44.8" as="geometry"/>
                </mxCell>
                <mxCell id="148" style="edgeStyle=none;rounded=1;html=1;" edge="1" parent="1" source="131">
                    <mxGeometry relative="1" as="geometry">
                        <mxPoint x="860" y="120" as="targetPoint"/>
                    </mxGeometry>
                </mxCell>
                <mxCell id="149" style="edgeStyle=none;rounded=1;html=1;entryX=0;entryY=0.5;entryDx=0;entryDy=0;entryPerimeter=0;" edge="1" parent="1" source="131" target="112">
                    <mxGeometry relative="1" as="geometry"/>
                </mxCell>
                <mxCell id="131" value="" style="pointerEvents=1;shadow=0;dashed=0;html=1;strokeColor=none;fillColor=#4495D1;labelPosition=center;verticalLabelPosition=bottom;verticalAlign=top;align=center;outlineConnect=0;shape=mxgraph.veeam.2d.proxy;" vertex="1" parent="1">
                    <mxGeometry x="520" y="-54.799999999999955" width="44.8" height="44.8" as="geometry"/>
                </mxCell>
                <mxCell id="143" style="edgeStyle=none;rounded=1;html=1;entryX=0;entryY=0.5;entryDx=0;entryDy=0;entryPerimeter=0;" edge="1" parent="1" source="132" target="72">
                    <mxGeometry relative="1" as="geometry"/>
                </mxCell>
                <mxCell id="147" style="edgeStyle=none;rounded=1;html=1;entryX=0;entryY=0.493;entryDx=0;entryDy=0;entryPerimeter=0;" edge="1" parent="1" source="132" target="73">
                    <mxGeometry relative="1" as="geometry"/>
                </mxCell>
                <mxCell id="132" value="" style="pointerEvents=1;shadow=0;dashed=0;html=1;strokeColor=none;fillColor=#4495D1;labelPosition=center;verticalLabelPosition=bottom;verticalAlign=top;align=center;outlineConnect=0;shape=mxgraph.veeam.2d.proxy;" vertex="1" parent="1">
                    <mxGeometry x="1140" y="310" width="44.8" height="44.8" as="geometry"/>
                </mxCell>
                <mxCell id="135" style="edgeStyle=none;rounded=1;html=1;" edge="1" parent="1" source="133" target="131">
                    <mxGeometry relative="1" as="geometry"/>
                </mxCell>
                <mxCell id="136" style="edgeStyle=none;rounded=1;html=1;" edge="1" parent="1" source="133" target="130">
                    <mxGeometry relative="1" as="geometry"/>
                </mxCell>
                <mxCell id="137" style="edgeStyle=none;rounded=1;html=1;" edge="1" parent="1" source="133" target="132">
                    <mxGeometry relative="1" as="geometry"/>
                </mxCell>
                <mxCell id="133" value="" style="shape=mxgraph.gcp2.doubleRect;strokeColor=#dddddd;shadow=1;strokeWidth=1;rounded=1;absoluteArcSize=1;arcSize=2;dashed=1;" vertex="1" parent="1">
                    <mxGeometry x="481" y="-310" width="128" height="68" as="geometry"/>
                </mxCell>
                <mxCell id="134" value="Metrics&lt;br&gt;Query" style="editableCssRules=.*;html=1;fontColor=#999999;shape=image;verticalLabelPosition=middle;labelBackgroundColor=#ffffff;verticalAlign=middle;labelPosition=right;align=left;spacingLeft=20;part=1;points=[];imageAspect=0;image=data:image/svg+xml,PHN2ZyB4bWxucz0iaHR0cDovL3d3dy53My5vcmcvMjAwMC9zdmciIHhtbG5zOnY9Imh0dHBzOi8vdmVjdGEuaW8vbmFubyIgd2lkdGg9IjIwLjAwMTA0NTIyNzA1MDc4IiBoZWlnaHQ9IjIwLjAwMTA0NTIyNzA1MDc4IiBmaWxsLXJ1bGU9ImV2ZW5vZGQiIHZpZXdCb3g9IjAgMCAyMC4wMDEwNDUyMjcwNTA3OCAyMC4wMDEwNDUyMjcwNTA3OCI+JiN4YTsJPHN0eWxlIHR5cGU9InRleHQvY3NzIj4mI3hhOwkuc3Qwe2ZpbGw6I2FlY2JmYTt9JiN4YTsJLnN0MXtmaWxsOiM2NjlkZjY7fSYjeGE7CS5zdDJ7ZmlsbDojNDI4NWY0O30mI3hhOwk8L3N0eWxlPiYjeGE7CTxwYXRoIGNsYXNzPSJzdDAiIGQ9Ik00LjczIDguODN2Mi42M2E0LjkxIDQuOTEgMCAwIDAgMS43MSAxLjc0VjguODN6Ii8+JiN4YTsJPHBhdGggY2xhc3M9InN0MSIgZD0iTTcuODkgNi40MXY3LjUzQTcuNjIgNy42MiAwIDAgMCA5IDE0YTggOCAwIDAgMCAxIDBWNi40MXoiLz4mI3hhOwk8cGF0aCBjbGFzcz0ic3QwIiBkPSJNMTEuNjQgOS44NnYzLjI5YTUgNSAwIDAgMCAxLjctMS44MlY5Ljg2eiIvPiYjeGE7CTxwYXRoIGNsYXNzPSJzdDIiIGQ9Ik0xNS43NCAxNC4zMmwtMS40MiAxLjQyYS40Mi40MiAwIDAgMCAwIC42bDMuNTQgMy41NGEuNDIuNDIgMCAwIDAgLjU5IDBsMS40My0xLjQzYS40Mi40MiAwIDAgMCAwLS41OWwtMy41NC0zLjU0YS40Mi40MiAwIDAgMC0uNiAwIi8+JiN4YTsJPHBhdGggY2xhc3M9InN0MSIgZD0iTTkgMGE5IDkgMCAxIDAgMCAxOEE5IDkgMCAxIDAgOSAwbTAgMTUuNjlhNi42OCA2LjY4IDAgMCAxIC4wMDctMTMuMzYgNi42OCA2LjY4IDAgMCAxIDQuNzI3IDExLjQwM0E2LjY4IDYuNjggMCAwIDEgOSAxNS42OSIvPiYjeGE7PC9zdmc+;dashed=1;" vertex="1" parent="133">
                    <mxGeometry width="30" height="30" relative="1" as="geometry">
                        <mxPoint x="15" y="15" as="offset"/>
                    </mxGeometry>
                </mxCell>
                <mxCell id="138" value="vpc 预制区" style="text;html=1;strokeColor=none;fillColor=none;align=center;verticalAlign=middle;whiteSpace=wrap;rounded=0;dashed=1;" vertex="1" parent="1">
                    <mxGeometry x="60" y="250" width="60" height="30" as="geometry"/>
                </mxCell>
                <mxCell id="139" value="vpc 预制区" style="text;html=1;strokeColor=none;fillColor=none;align=center;verticalAlign=middle;whiteSpace=wrap;rounded=0;dashed=1;" vertex="1" parent="1">
                    <mxGeometry x="857" y="250" width="60" height="30" as="geometry"/>
                </mxCell>
                <mxCell id="140" value="vpc 预制区" style="text;html=1;strokeColor=none;fillColor=none;align=center;verticalAlign=middle;whiteSpace=wrap;rounded=0;dashed=1;" vertex="1" parent="1">
                    <mxGeometry x="284" y="-120" width="60" height="30" as="geometry"/>
                </mxCell>
                <mxCell id="144" value="&lt;h1&gt;Heading&lt;/h1&gt;&lt;p&gt;https://help.aliyun.com/apsara/enterprise/v_3_18_0/prometheus/o-m-guide/component-architecture.html?spm=a2c4g.14484438.10001.57&lt;br&gt;&lt;/p&gt;" style="text;html=1;strokeColor=none;fillColor=none;spacing=5;spacingTop=-20;whiteSpace=wrap;overflow=hidden;rounded=0;dashed=1;" vertex="1" parent="1">
                    <mxGeometry x="1122" y="-80" width="190" height="120" as="geometry"/>
                </mxCell>
                <mxCell id="150" style="edgeStyle=none;rounded=1;html=1;" edge="1" parent="1" source="64" target="83">
                    <mxGeometry relative="1" as="geometry"/>
                </mxCell>
                <mxCell id="153" value="grpc thanos store api" style="rounded=0;whiteSpace=wrap;html=1;dashed=1;" vertex="1" parent="1">
                    <mxGeometry x="930" y="260" width="120" height="60" as="geometry"/>
                </mxCell>
                <mxCell id="154" value="tcp vm store api" style="rounded=0;whiteSpace=wrap;html=1;dashed=1;" vertex="1" parent="1">
                    <mxGeometry x="930" y="320" width="120" height="60" as="geometry"/>
                </mxCell>
            </root>
        </mxGraphModel>
    </diagram>
</mxfile>